<svg width="55" height="56" viewBox="0 0 55 56" fill="none" xmlns="http://www.w3.org/2000/svg">
<rect x="2.5" y="3" width="50" height="50" fill="white"/>
<rect x="2.5" y="3" width="50" height="50" stroke="white" stroke-width="5"/>
<mask id="path-2-outside-1_500_720" maskUnits="userSpaceOnUse" x="11" y="23.5" width="31" height="24" fill="black">
<rect fill="white" x="11" y="23.5" width="31" height="24"/>
<path d="M26.5 28.6752C29.0005 26.9503 34.75 24.7937 40 28.6752V45.5C34.75 41.6185 29.0005 43.775 26.5 45.5M26.5 28.6752C23.9995 26.9503 18.25 24.7937 13 28.6752V45.5C18.25 41.6185 23.9995 43.775 26.5 45.5M26.5 28.6752V45.5V28.6752Z"/>
<path d="M17.5 38.7142V33.2855C17.5 32.8056 17.7107 32.3453 18.0858 32.006C18.4609 31.6666 18.9696 31.476 19.5 31.476C20.0304 31.476 20.5391 31.6666 20.9142 32.006C21.2893 32.3453 21.5 32.8056 21.5 33.2855V38.7142M17.5 35.9998H21.5H17.5Z"/>
<path d="M31.5 37.8094C31.5 38.0494 31.6054 38.2795 31.7929 38.4492C31.9804 38.6188 32.2348 38.7142 32.5 38.7142H34.5C34.7652 38.7142 35.0196 38.6188 35.2071 38.4492C35.3946 38.2795 35.5 38.0494 35.5 37.8094V35.9998C35.5 35.7599 35.3946 35.5297 35.2071 35.3601C35.0196 35.1904 34.7652 35.0951 34.5 35.0951H32.5C32.2348 35.0951 31.9804 34.9997 31.7929 34.8301C31.6054 34.6604 31.5 34.4302 31.5 34.1903V32.3807C31.5 32.1408 31.6054 31.9106 31.7929 31.741C31.9804 31.5713 32.2348 31.476 32.5 31.476H34.5C34.7652 31.476 35.0196 31.5713 35.2071 31.741C35.3946 31.9106 35.5 32.1408 35.5 32.3807"/>
</mask>
<path d="M26.5 28.6752C29.0005 26.9503 34.75 24.7937 40 28.6752V45.5C34.75 41.6185 29.0005 43.775 26.5 45.5M26.5 28.6752C23.9995 26.9503 18.25 24.7937 13 28.6752V45.5C18.25 41.6185 23.9995 43.775 26.5 45.5M26.5 28.6752V45.5V28.6752Z" fill="#FAC4C7"/>
<path d="M17.5 38.7142V33.2855C17.5 32.8056 17.7107 32.3453 18.0858 32.006C18.4609 31.6666 18.9696 31.476 19.5 31.476C20.0304 31.476 20.5391 31.6666 20.9142 32.006C21.2893 32.3453 21.5 32.8056 21.5 33.2855V38.7142M17.5 35.9998H21.5H17.5Z" fill="#FAC4C7"/>
<path d="M31.5 37.8094C31.5 38.0494 31.6054 38.2795 31.7929 38.4492C31.9804 38.6188 32.2348 38.7142 32.5 38.7142H34.5C34.7652 38.7142 35.0196 38.6188 35.2071 38.4492C35.3946 38.2795 35.5 38.0494 35.5 37.8094V35.9998C35.5 35.7599 35.3946 35.5297 35.2071 35.3601C35.0196 35.1904 34.7652 35.0951 34.5 35.0951H32.5C32.2348 35.0951 31.9804 34.9997 31.7929 34.8301C31.6054 34.6604 31.5 34.4302 31.5 34.1903V32.3807C31.5 32.1408 31.6054 31.9106 31.7929 31.741C31.9804 31.5713 32.2348 31.476 32.5 31.476H34.5C34.7652 31.476 35.0196 31.5713 35.2071 31.741C35.3946 31.9106 35.5 32.1408 35.5 32.3807" fill="#FAC4C7"/>
<path d="M40 28.6752H42C42 28.0409 41.6991 27.4441 41.189 27.067L40 28.6752ZM40 45.5L38.811 47.1082C39.4182 47.5571 40.2264 47.6258 40.9006 47.2858C41.5748 46.9458 42 46.2551 42 45.5H40ZM26.5 45.5L25.3643 47.1463C26.048 47.6179 26.952 47.6179 27.6357 47.1463L26.5 45.5ZM13 28.6752L11.811 27.067C11.3009 27.4441 11 28.0409 11 28.6752H13ZM13 45.5H11C11 46.2551 11.4252 46.9458 12.0994 47.2858C12.7736 47.6258 13.5818 47.5571 14.189 47.1082L13 45.5ZM15.5 38.7142C15.5 39.8187 16.3954 40.7142 17.5 40.7142C18.6046 40.7142 19.5 39.8187 19.5 38.7142H15.5ZM19.5 31.476V33.476V31.476ZM21.5 33.2855H19.5H21.5ZM19.5 38.7142C19.5 39.8187 20.3954 40.7142 21.5 40.7142C22.6046 40.7142 23.5 39.8187 23.5 38.7142H19.5ZM17.5 33.9998C16.3954 33.9998 15.5 34.8953 15.5 35.9998C15.5 37.1044 16.3954 37.9998 17.5 37.9998V33.9998ZM21.5 37.9998C22.6046 37.9998 23.5 37.1044 23.5 35.9998C23.5 34.8953 22.6046 33.9998 21.5 33.9998V37.9998ZM33.5 37.8094C33.5 36.7048 32.6046 35.8094 31.5 35.8094C30.3954 35.8094 29.5 36.7048 29.5 37.8094H33.5ZM32.5 31.476V33.476V31.476ZM34.5 31.476V33.476V31.476ZM33.5 32.3807C33.5 33.4853 34.3954 34.3807 35.5 34.3807C36.6046 34.3807 37.5 33.4853 37.5 32.3807H33.5ZM27.6357 30.3215C29.8078 28.8231 34.5543 27.1363 38.811 30.2834L41.189 27.067C34.9457 22.4512 28.1932 25.0775 25.3643 27.0289L27.6357 30.3215ZM38 28.6752V45.5H42V28.6752H38ZM41.189 43.8918C34.9457 39.276 28.1932 41.9022 25.3643 43.8537L27.6357 47.1463C29.8078 45.6479 34.5543 43.961 38.811 47.1082L41.189 43.8918ZM27.6357 27.0289C24.8068 25.0775 18.0543 22.4512 11.811 27.067L14.189 30.2834C18.4457 27.1363 23.1922 28.8231 25.3643 30.3215L27.6357 27.0289ZM11 28.6752V45.5H15V28.6752H11ZM14.189 47.1082C18.4457 43.961 23.1922 45.6479 25.3643 47.1463L27.6357 43.8537C24.8068 41.9022 18.0543 39.276 11.811 43.8918L14.189 47.1082ZM24.5 28.6752V45.5H28.5V28.6752H24.5ZM19.5 38.7142V33.2855H15.5V38.7142H19.5ZM19.5 33.2855C19.5 33.4043 19.4461 33.4723 19.4276 33.489L16.7439 30.5229C15.9754 31.2183 15.5 32.2069 15.5 33.2855H19.5ZM19.4276 33.489C19.42 33.4959 19.4214 33.4921 19.4365 33.4865C19.4515 33.4809 19.4735 33.476 19.5 33.476V29.476C18.5001 29.476 17.5059 29.8335 16.7439 30.5229L19.4276 33.489ZM19.5 33.476C19.5265 33.476 19.5485 33.4809 19.5635 33.4865C19.5786 33.4921 19.58 33.4959 19.5724 33.489L22.2561 30.5229C21.4941 29.8335 20.4999 29.476 19.5 29.476V33.476ZM19.5724 33.489C19.5539 33.4723 19.5 33.4043 19.5 33.2855H23.5C23.5 32.2069 23.0246 31.2183 22.2561 30.5229L19.5724 33.489ZM19.5 33.2855V38.7142H23.5V33.2855H19.5ZM17.5 37.9998H21.5V33.9998H17.5V37.9998ZM29.5 37.8094C29.5 38.648 29.87 39.4065 30.4511 39.9322L33.1347 36.9661C33.3407 37.1525 33.5 37.4507 33.5 37.8094H29.5ZM30.4511 39.9322C31.0255 40.452 31.7654 40.7142 32.5 40.7142V36.7142C32.7042 36.7142 32.9354 36.7857 33.1347 36.9661L30.4511 39.9322ZM32.5 40.7142H34.5V36.7142H32.5V40.7142ZM34.5 40.7142C35.2346 40.7142 35.9745 40.452 36.5489 39.9322L33.8653 36.9661C34.0646 36.7857 34.2958 36.7142 34.5 36.7142V40.7142ZM36.5489 39.9322C37.13 39.4065 37.5 38.648 37.5 37.8094H33.5C33.5 37.4507 33.6593 37.1525 33.8653 36.9661L36.5489 39.9322ZM37.5 37.8094V35.9998H33.5V37.8094H37.5ZM37.5 35.9998C37.5 35.1612 37.13 34.4027 36.5489 33.877L33.8653 36.8431C33.6593 36.6567 33.5 36.3586 33.5 35.9998H37.5ZM36.5489 33.877C35.9745 33.3573 35.2346 33.0951 34.5 33.0951V37.0951C34.2958 37.0951 34.0646 37.0235 33.8653 36.8431L36.5489 33.877ZM34.5 33.0951H32.5V37.0951H34.5V33.0951ZM32.5 33.0951C32.7042 33.0951 32.9354 33.1666 33.1347 33.347L30.4511 36.3131C31.0255 36.8329 31.7654 37.0951 32.5 37.0951V33.0951ZM33.1347 33.347C33.3407 33.5334 33.5 33.8316 33.5 34.1903H29.5C29.5 35.0289 29.87 35.7874 30.4511 36.3131L33.1347 33.347ZM33.5 34.1903V32.3807H29.5V34.1903H33.5ZM33.5 32.3807C33.5 32.7395 33.3407 33.0376 33.1347 33.224L30.4511 30.2579C29.87 30.7836 29.5 31.5421 29.5 32.3807H33.5ZM33.1347 33.224C32.9354 33.4044 32.7042 33.476 32.5 33.476V29.476C31.7654 29.476 31.0255 29.7382 30.4511 30.2579L33.1347 33.224ZM32.5 33.476H34.5V29.476H32.5V33.476ZM34.5 33.476C34.2958 33.476 34.0646 33.4044 33.8653 33.224L36.5489 30.2579C35.9745 29.7382 35.2346 29.476 34.5 29.476V33.476ZM33.8653 33.224C33.6593 33.0376 33.5 32.7395 33.5 32.3807H37.5C37.5 31.5421 37.13 30.7836 36.5489 30.2579L33.8653 33.224Z" fill="#FAC4C7" mask="url(#path-2-outside-1_500_720)"/>
<path d="M24 23.0187C26.7783 21.0214 33.1667 18.5243 39 23.0187V42.5C33.1667 38.0056 26.7783 40.5027 24 42.5M24 23.0187C21.2217 21.0214 14.8333 18.5243 9 23.0187V42.5C14.8333 38.0056 21.2217 40.5027 24 42.5M24 23.0187V42.5M14 34.6427V28.3569C14 27.8012 14.2341 27.2683 14.6509 26.8753C15.0676 26.4824 15.6329 26.2616 16.2222 26.2616C16.8116 26.2616 17.3768 26.4824 17.7936 26.8753C18.2103 27.2683 18.4444 27.8012 18.4444 28.3569V34.6427M14 31.4998H18.4444M29.5556 33.5951C29.5556 33.8729 29.6726 34.1394 29.881 34.3359C30.0894 34.5323 30.372 34.6427 30.6667 34.6427H32.8889C33.1836 34.6427 33.4662 34.5323 33.6746 34.3359C33.8829 34.1394 34 33.8729 34 33.5951V31.4998C34 31.222 33.8829 30.9555 33.6746 30.759C33.4662 30.5626 33.1836 30.4522 32.8889 30.4522H30.6667C30.372 30.4522 30.0894 30.3418 29.881 30.1453C29.6726 29.9489 29.5556 29.6824 29.5556 29.4045V27.3093C29.5556 27.0314 29.6726 26.7649 29.881 26.5685C30.0894 26.372 30.372 26.2616 30.6667 26.2616H32.8889C33.1836 26.2616 33.4662 26.372 33.6746 26.5685C33.8829 26.7649 34 27.0314 34 27.3093" stroke="#333A57" stroke-width="2" stroke-linecap="round" stroke-linejoin="round"/>
<circle cx="39.6712" cy="14.8816" r="3.61842" fill="#FDFF8D"/>
<path d="M37.2105 10.9737C37.2105 9.61713 37.2105 8.85656 37.2105 7.5M37.2105 17.9211V14.4474M34.6053 10.1053L35.4737 10.9737M38.9474 14.4474L39.8158 15.3158M38.9474 10.9737C39.2865 10.6345 39.4767 10.4444 39.8158 10.1053M34.6053 15.3158L35.4737 14.4474M38.9474 12.7105C40.3039 12.7105 41.0645 12.7105 42.4211 12.7105M32 12.7105H35.4737" stroke="#333A57" stroke-linecap="round" stroke-linejoin="round"/>
<circle cx="45.2998" cy="21.6" r="2.5" fill="#FDFF8D"/>
<path d="M43.6 18.9C43.6 17.9627 43.6 17.4373 43.6 16.5M43.6 23.7V21.3M41.8 18.3L42.4 18.9M44.8 21.3L45.4 21.9M44.8 18.9C45.0343 18.6657 45.1657 18.5343 45.4 18.3M41.8 21.9L42.4 21.3M44.8 20.1C45.7373 20.1 46.2627 20.1 47.2 20.1M40 20.1H42.4" stroke="#333A57" stroke-linecap="round" stroke-linejoin="round"/>
</svg>
